<?xml version="1.0" encoding="UTF-8"?>
<svg width="700pt" height="700pt" version="1.1" viewBox="0 0 700 700" xmlns="http://www.w3.org/2000/svg" xmlns:xlink="http://www.w3.org/1999/xlink">
 <defs>
  <symbol id="u" overflow="visible">
   <path d="m10.859-0.65625c-0.55469 0.29297-1.1367 0.51172-1.75 0.65625-0.60547 0.15625-1.2344 0.23438-1.8906 0.23438-1.9688 0-3.5312-0.55078-4.6875-1.6562-1.1484-1.1016-1.7188-2.5977-1.7188-4.4844 0-1.8828 0.57031-3.375 1.7188-4.4688 1.1562-1.1016 2.7188-1.6562 4.6875-1.6562 0.65625 0 1.2852 0.074219 1.8906 0.21875 0.61328 0.14844 1.1953 0.36719 1.75 0.65625v2.4375c-0.5625-0.38281-1.1211-0.66406-1.6719-0.84375-0.54297-0.17578-1.1211-0.26562-1.7344-0.26562-1.0859 0-1.9375 0.35156-2.5625 1.0469-0.625 0.69922-0.9375 1.6562-0.9375 2.875s0.3125 2.1797 0.9375 2.875c0.625 0.69922 1.4766 1.0469 2.5625 1.0469 0.61328 0 1.1914-0.085937 1.7344-0.26562 0.55078-0.17578 1.1094-0.45703 1.6719-0.84375z"/>
  </symbol>
  <symbol id="e" overflow="visible">
   <path d="m7.9531-6.4531c-0.25-0.11328-0.5-0.19531-0.75-0.25-0.24219-0.0625-0.48438-0.09375-0.73438-0.09375-0.73047 0-1.293 0.23438-1.6875 0.70312-0.38672 0.46875-0.57812 1.1367-0.57812 2v4.0938h-2.8438v-8.875h2.8438v1.4688c0.36328-0.58203 0.78125-1.0039 1.25-1.2656 0.46875-0.26953 1.0352-0.40625 1.7031-0.40625 0.09375 0 0.19141 0.007813 0.29688 0.015625 0.11328 0 0.27344 0.015625 0.48438 0.046875z"/>
  </symbol>
  <symbol id="b" overflow="visible">
   <path d="m10.219-4.4531v0.79688h-6.625c0.0625 0.66797 0.29688 1.168 0.70312 1.5 0.41406 0.33594 0.99219 0.5 1.7344 0.5 0.59375 0 1.2031-0.085938 1.8281-0.26562 0.63281-0.17578 1.2812-0.44141 1.9375-0.79688v2.1875c-0.66797 0.25-1.3398 0.4375-2.0156 0.5625-0.66797 0.13281-1.3398 0.20312-2.0156 0.20312-1.6055 0-2.8516-0.40625-3.7344-1.2188-0.88672-0.82031-1.3281-1.9688-1.3281-3.4375 0-1.4453 0.42969-2.582 1.2969-3.4062 0.875-0.83203 2.0781-1.25 3.6094-1.25 1.3945 0 2.5078 0.42188 3.3438 1.2656 0.84375 0.83594 1.2656 1.9531 1.2656 3.3594zm-2.9219-0.95312c0-0.53125-0.15625-0.96094-0.46875-1.2969-0.3125-0.33203-0.72656-0.5-1.2344-0.5-0.54297 0-0.98438 0.15625-1.3281 0.46875s-0.55859 0.75781-0.64062 1.3281z"/>
  </symbol>
  <symbol id="d" overflow="visible">
   <path d="m5.3438-3.9844c-0.59375 0-1.043 0.10156-1.3438 0.29688-0.29297 0.19922-0.4375 0.49609-0.4375 0.89062 0 0.35547 0.11719 0.63672 0.35938 0.84375 0.23828 0.19922 0.57031 0.29688 1 0.29688 0.53125 0 0.97656-0.1875 1.3438-0.5625 0.36328-0.38281 0.54688-0.86719 0.54688-1.4531v-0.3125zm4.3281-1.0781v5.0625h-2.8594v-1.3125c-0.38672 0.54297-0.82031 0.9375-1.2969 1.1875-0.46875 0.23828-1.043 0.35938-1.7188 0.35938-0.91797 0-1.6641-0.26562-2.2344-0.79688-0.57422-0.53906-0.85938-1.2383-0.85938-2.0938 0-1.0391 0.35156-1.8008 1.0625-2.2812 0.71875-0.48828 1.8438-0.73438 3.375-0.73438h1.6719v-0.23438c0-0.44531-0.17969-0.77344-0.53125-0.98438-0.35547-0.20703-0.90625-0.3125-1.6562-0.3125-0.60547 0-1.1719 0.0625-1.7031 0.1875-0.52344 0.125-1.0078 0.30859-1.4531 0.54688v-2.1562c0.61328-0.15625 1.2227-0.26953 1.8281-0.34375 0.61328-0.070312 1.2266-0.10938 1.8438-0.10938 1.6016 0 2.7578 0.32031 3.4688 0.95312 0.70703 0.625 1.0625 1.6484 1.0625 3.0625z"/>
  </symbol>
  <symbol id="c" overflow="visible">
   <path d="m4.4531-11.391v2.5156h2.9219v2.0312h-2.9219v3.7656c0 0.40625 0.082031 0.68359 0.25 0.82812 0.16406 0.14844 0.48828 0.21875 0.96875 0.21875h1.4688v2.0312h-2.4375c-1.1172 0-1.9062-0.23438-2.375-0.70312s-0.70312-1.2578-0.70312-2.375v-3.7656h-1.4062v-2.0312h1.4062v-2.5156z"/>
  </symbol>
  <symbol id="k" overflow="visible">
   <path d="m7.3906-7.5781v-4.75h2.8594v12.328h-2.8594v-1.2812c-0.38672 0.52344-0.8125 0.90625-1.2812 1.1562-0.46875 0.23828-1.0156 0.35938-1.6406 0.35938-1.0938 0-1.9922-0.42969-2.6875-1.2969-0.69922-0.875-1.0469-1.9922-1.0469-3.3594 0-1.375 0.34766-2.4922 1.0469-3.3594 0.69531-0.86328 1.5938-1.2969 2.6875-1.2969 0.61328 0 1.1562 0.125 1.625 0.375 0.47656 0.24219 0.91016 0.61719 1.2969 1.125zm-1.8594 5.75c0.60156 0 1.0625-0.21875 1.375-0.65625 0.32031-0.44531 0.48438-1.0938 0.48438-1.9375s-0.16406-1.4883-0.48438-1.9375c-0.3125-0.44531-0.77344-0.67188-1.375-0.67188-0.60547 0-1.0703 0.22656-1.3906 0.67188-0.3125 0.44922-0.46875 1.0938-0.46875 1.9375s0.15625 1.4922 0.46875 1.9375c0.32031 0.4375 0.78516 0.65625 1.3906 0.65625z"/>
  </symbol>
  <symbol id="j" overflow="visible">
   <path d="m6.0781-1.8281c0.61328 0 1.0781-0.21875 1.3906-0.65625 0.32031-0.44531 0.48438-1.0938 0.48438-1.9375s-0.16406-1.4883-0.48438-1.9375c-0.3125-0.44531-0.77734-0.67188-1.3906-0.67188-0.60547 0-1.0703 0.22656-1.3906 0.67188-0.32422 0.44922-0.48438 1.0938-0.48438 1.9375 0 0.83594 0.16016 1.4766 0.48438 1.9219 0.32031 0.44922 0.78516 0.67188 1.3906 0.67188zm-1.875-5.75c0.38281-0.50781 0.8125-0.88281 1.2812-1.125 0.47656-0.25 1.0312-0.375 1.6562-0.375 1.0938 0 1.9883 0.43359 2.6875 1.2969 0.69531 0.86719 1.0469 1.9844 1.0469 3.3594 0 1.3672-0.35156 2.4844-1.0469 3.3594-0.69922 0.86719-1.5938 1.2969-2.6875 1.2969-0.625 0-1.1797-0.12109-1.6562-0.35938-0.46875-0.25-0.89844-0.63281-1.2812-1.1562v1.2812h-2.8438v-12.328h2.8438z"/>
  </symbol>
  <symbol id="g" overflow="visible">
   <path d="m0.20312-8.875h2.8281l2.3906 6.0312 2.0156-6.0312h2.8438l-3.7344 9.7188c-0.375 0.98828-0.8125 1.6758-1.3125 2.0625-0.5 0.39453-1.1562 0.59375-1.9688 0.59375h-1.6406v-1.8594h0.89062c0.47656 0 0.82812-0.078125 1.0469-0.23438 0.21875-0.14844 0.39062-0.41797 0.51562-0.8125l0.078125-0.25z"/>
  </symbol>
  <symbol id="i" overflow="visible">
   <path d="m12.109-0.875c-0.76172 0.36719-1.5547 0.64062-2.375 0.82812-0.8125 0.1875-1.6523 0.28125-2.5156 0.28125-1.9688 0-3.5312-0.55078-4.6875-1.6562-1.1484-1.1016-1.7188-2.5977-1.7188-4.4844 0-1.9062 0.58203-3.3984 1.75-4.4844 1.1758-1.0938 2.7812-1.6406 4.8125-1.6406 0.78906 0 1.5469 0.074219 2.2656 0.21875 0.71875 0.14844 1.3984 0.36719 2.0469 0.65625v2.4375c-0.66797-0.375-1.3281-0.64844-1.9844-0.82812-0.64844-0.1875-1.2969-0.28125-1.9531-0.28125-1.2109 0-2.1484 0.33984-2.8125 1.0156-0.65625 0.67969-0.98438 1.6484-0.98438 2.9062 0 1.2617 0.31641 2.2305 0.95312 2.9062 0.63281 0.67969 1.5352 1.0156 2.7031 1.0156 0.3125 0 0.60156-0.015625 0.875-0.046875 0.28125-0.039062 0.52344-0.10156 0.73438-0.1875v-2.2969h-1.8594v-2.0469h4.75z"/>
  </symbol>
  <symbol id="f" overflow="visible">
   <path d="m10.281-5.4062v5.4062h-2.8594v-4.1406c0-0.75781-0.015625-1.2852-0.046875-1.5781-0.03125-0.28906-0.089844-0.50391-0.17188-0.64062-0.11719-0.1875-0.26562-0.32812-0.45312-0.42188-0.1875-0.10156-0.40625-0.15625-0.65625-0.15625-0.59375 0-1.0586 0.23047-1.3906 0.6875-0.33594 0.44922-0.5 1.0781-0.5 1.8906v4.3594h-2.8438v-8.875h2.8438v1.2969c0.42578-0.50781 0.87891-0.88281 1.3594-1.125 0.47656-0.25 1.0078-0.375 1.5938-0.375 1.0195 0 1.7969 0.3125 2.3281 0.9375s0.79688 1.5391 0.79688 2.7344z"/>
  </symbol>
  <symbol id="t" overflow="visible">
   <path d="m1.4844-11.828h3.0469v4.3281l4.4062-4.3281h3.5312l-5.6875 5.6094 6.2812 6.2188h-3.8281l-4.7031-4.6562v4.6562h-3.0469z"/>
  </symbol>
  <symbol id="h" overflow="visible">
   <path d="m10.281-5.4062v5.4062h-2.8594v-4.125c0-0.76953-0.015625-1.3008-0.046875-1.5938-0.03125-0.28906-0.089844-0.50391-0.17188-0.64062-0.11719-0.1875-0.26562-0.32812-0.45312-0.42188-0.1875-0.10156-0.40625-0.15625-0.65625-0.15625-0.59375 0-1.0586 0.23047-1.3906 0.6875-0.33594 0.44922-0.5 1.0781-0.5 1.8906v4.3594h-2.8438v-12.328h2.8438v4.75c0.42578-0.50781 0.87891-0.88281 1.3594-1.125 0.47656-0.25 1.0078-0.375 1.5938-0.375 1.0195 0 1.7969 0.3125 2.3281 0.9375s0.79688 1.5391 0.79688 2.7344z"/>
  </symbol>
  <symbol id="a" overflow="visible">
   <path d="m5.5781-7.0625c-0.625 0-1.1055 0.23047-1.4375 0.6875-0.32422 0.44922-0.48438 1.1016-0.48438 1.9531 0 0.84375 0.16016 1.4961 0.48438 1.9531 0.33203 0.44922 0.8125 0.67188 1.4375 0.67188s1.0977-0.22266 1.4219-0.67188c0.32031-0.45703 0.48438-1.1094 0.48438-1.9531 0-0.85156-0.16406-1.5039-0.48438-1.9531-0.32422-0.45703-0.79688-0.6875-1.4219-0.6875zm0-2.0156c1.5312 0 2.7227 0.41406 3.5781 1.2344 0.86328 0.82422 1.2969 1.9648 1.2969 3.4219 0 1.4609-0.43359 2.6016-1.2969 3.4219-0.85547 0.82422-2.0469 1.2344-3.5781 1.2344s-2.7305-0.41016-3.5938-1.2344c-0.85547-0.82031-1.2812-1.9609-1.2812-3.4219 0-1.457 0.42578-2.5977 1.2812-3.4219 0.86328-0.82031 2.0625-1.2344 3.5938-1.2344z"/>
  </symbol>
  <symbol id="s" overflow="visible">
   <path d="m1.4844-11.828h3.0469v9.5312h5.3594v2.2969h-8.4062z"/>
  </symbol>
  <symbol id="r" overflow="visible">
   <path d="m7.2031-12.328v1.8594h-1.5781c-0.39844 0-0.67969 0.074219-0.84375 0.21875-0.15625 0.14844-0.23438 0.40234-0.23438 0.76562v0.60938h2.4375v2.0312h-2.4375v6.8438h-2.8281v-6.8438h-1.4062v-2.0312h1.4062v-0.60938c0-0.96875 0.26562-1.6797 0.79688-2.1406 0.53906-0.46875 1.3789-0.70312 2.5156-0.70312z"/>
  </symbol>
  <symbol id="q" overflow="visible">
   <path d="m9.5781-7.3906c0.36328-0.55078 0.78906-0.96875 1.2812-1.25 0.5-0.28906 1.0391-0.4375 1.625-0.4375 1.0195 0 1.7969 0.3125 2.3281 0.9375s0.79688 1.5391 0.79688 2.7344v5.4062h-2.8438v-4.625c0.007813-0.070312 0.015625-0.14453 0.015625-0.21875v-0.3125c0-0.625-0.09375-1.0781-0.28125-1.3594-0.17969-0.28125-0.47656-0.42188-0.89062-0.42188-0.54297 0-0.96094 0.22656-1.25 0.67188-0.29297 0.4375-0.44531 1.0742-0.45312 1.9062v4.3594h-2.8438v-4.625c0-0.97656-0.089844-1.6094-0.26562-1.8906-0.16797-0.28125-0.46484-0.42188-0.89062-0.42188-0.55469 0-0.97656 0.22656-1.2656 0.67188-0.29297 0.4375-0.4375 1.0742-0.4375 1.9062v4.3594h-2.8594v-8.875h2.8594v1.2969c0.34375-0.5 0.73828-0.875 1.1875-1.125 0.45703-0.25 0.95703-0.375 1.5-0.375 0.61328 0 1.1562 0.14844 1.625 0.4375 0.46875 0.29297 0.82031 0.71094 1.0625 1.25z"/>
  </symbol>
  <symbol id="p" overflow="visible">
   <path d="m1.4844-11.828h3.4062l4.2969 8.1094v-8.1094h2.8906v11.828h-3.4062l-4.2969-8.1094v8.1094h-2.8906z"/>
  </symbol>
  <symbol id="o" overflow="visible">
   <path d="m1.2656-3.4531v-5.4219h2.8594v0.89062c0 0.48047-0.007812 1.0859-0.015625 1.8125v1.4531c0 0.71094 0.015625 1.2266 0.046875 1.5469 0.039062 0.3125 0.10156 0.53906 0.1875 0.67188 0.11328 0.1875 0.26562 0.33594 0.45312 0.4375 0.1875 0.09375 0.40625 0.14062 0.65625 0.14062 0.58203 0 1.0391-0.22266 1.375-0.67188 0.34375-0.45703 0.51562-1.0859 0.51562-1.8906v-4.3906h2.8438v8.875h-2.8438v-1.2812c-0.42969 0.52344-0.88281 0.90625-1.3594 1.1562-0.46875 0.23828-0.99609 0.35938-1.5781 0.35938-1.0234 0-1.8047-0.3125-2.3438-0.9375-0.53125-0.63281-0.79688-1.5508-0.79688-2.75z"/>
  </symbol>
  <symbol id="n" overflow="visible">
   <path d="m1.4844-11.828h5.0625c1.5078 0 2.6641 0.33984 3.4688 1.0156 0.80078 0.66797 1.2031 1.6172 1.2031 2.8438 0 1.2422-0.40234 2.1953-1.2031 2.8594-0.80469 0.66797-1.9609 1-3.4688 1h-2.0156v4.1094h-3.0469zm3.0469 2.2188v3.2969h1.6875c0.59375 0 1.0508-0.14062 1.375-0.42188 0.32031-0.28906 0.48438-0.70312 0.48438-1.2344s-0.16406-0.9375-0.48438-1.2188c-0.32422-0.28125-0.78125-0.42188-1.375-0.42188z"/>
  </symbol>
  <symbol id="m" overflow="visible">
   <path d="m1.3594-8.875h2.8438v8.7188c0 1.1875-0.28906 2.0938-0.85938 2.7188-0.57422 0.625-1.4023 0.9375-2.4844 0.9375h-1.3906v-1.8594h0.48438c0.53906 0 0.91016-0.125 1.1094-0.375 0.19531-0.24219 0.29688-0.71484 0.29688-1.4219zm0-3.4531h2.8438v2.3125h-2.8438z"/>
  </symbol>
  <symbol id="l" overflow="visible">
   <path d="m8.5312-8.5938v2.3125c-0.38672-0.25781-0.77734-0.45312-1.1719-0.57812-0.38672-0.13281-0.78906-0.20312-1.2031-0.20312-0.79297 0-1.4062 0.23438-1.8438 0.70312-0.4375 0.46094-0.65625 1.1055-0.65625 1.9375 0 0.82422 0.21875 1.4688 0.65625 1.9375 0.4375 0.46094 1.0508 0.6875 1.8438 0.6875 0.44531 0 0.86719-0.0625 1.2656-0.1875 0.39453-0.13281 0.76562-0.33203 1.1094-0.59375v2.3125c-0.44922 0.16797-0.90234 0.28906-1.3594 0.375-0.44922 0.082031-0.90234 0.125-1.3594 0.125-1.6055 0-2.8594-0.41016-3.7656-1.2344-0.89844-0.82031-1.3438-1.9609-1.3438-3.4219 0-1.4688 0.44531-2.6094 1.3438-3.4219 0.90625-0.82031 2.1602-1.2344 3.7656-1.2344 0.45703 0 0.91016 0.042969 1.3594 0.125 0.45703 0.074219 0.91016 0.19531 1.3594 0.35938z"/>
  </symbol>
 </defs>
 <g>
  <path d="m209.34 42.441c39.238 9.1406 63.645 48.355 54.508 87.594-9.1406 39.238-48.359 63.637-87.598 54.5-39.242-9.1406-63.648-48.355-54.508-87.594 9.1367-39.238 48.355-63.637 87.598-54.5"/>
  <path d="m562.79 77.594c39.242 9.1406 63.645 48.355 54.508 87.594s-48.355 63.637-87.598 54.5c-39.242-9.1406-63.645-48.355-54.508-87.594 9.1367-39.238 48.355-63.637 87.598-54.5"/>
  <path d="m423.55 476.14c1.0352-0.011719 2.0508-0.03125 3.043-0.054687 1.5508 0.17969 3.1211 0.29688 4.7148 0.29688v-0.007813h208.11c20.914 0 38.32-15.793 40.348-36.617 2.0273-20.816-12.012-39.672-32.535-43.703l-16.23-3.1875c0.46094 3.125 0.47266 6.2734 0.019531 9.3867-2.3086 15.812-16.094 27.738-32.055 27.738h-0.015625c-1.5938 0-3.1875-0.10938-4.7148-0.33984-36.445-5.2656-69.238-18.086-97.461-38.102-10.383-7.3516-20.379-15.91-29.684-25.434-2.4883-2.5469-4.9609-5.1992-7.3672-7.8867-7.668-8.6445-14.723-17.836-20.965-27.344-24.297-37.16-32.719-71.164-34.719-80.703l-0.015625-0.082031-0.074219-0.33203c-1.6406-8.5078 0.125-17.148 4.9805-24.32 4.8516-7.1758 12.219-12.023 20.723-13.672 2.0352-0.39062 4.1172-0.59766 6.1758-0.59766 15.438 0 28.805 11.02 31.785 26.199l0.066406 0.31641c0.054687 0.24219 0.17969 0.79297 0.36328 1.5391 0.57031 2.3398 1.2656 4.8047 2.0547 7.375 1.6875 5.5273 4.6016 13.941 9.0898 23.715 0.63672-3.1641 1.2578-6.2617 1.8438-9.2578 9.3047-32.281-2.8711-70.914-30.551-77.812-12.297-3.0664-27.051-1.7891-41.082 4.7266 0.14844 0.49609 0.3125 0.98438 0.4375 1.4922 0.19531 0.74219 0.38672 1.5508 0.52734 2.3633 3 17.641-8.9023 34.422-26.527 37.43l-10.328 1.7539-4.4414 0.75391c-0.97266 2.2812-1.8945 4.6367-2.7422 7.0977-22.07 65.43-26.816 108.02-18.43 180.06 0.30469 1.5586 0.63281 3.0703 0.98438 4.5508-4.3672-13.691-15.84-24.504-30.785-27.434l-182.43-35.836c-0.30469-0.0625-0.60547-0.078125-0.90625-0.12891 3.3359-32.625 10.215-64.574 15.535-91.016l-38.176 6.5078c-1.8398 0.31641-3.6797 0.47266-5.4883 0.47266l-0.011719 0.003906c-15.84-0.011719-29.266-11.359-31.934-26.988-3-17.637 8.9023-34.414 26.523-37.422l45.254-7.7109c-5.7305-10.262-14.199-17.957-25.117-20.68-27.688-6.9062-67.824 8.1328-84.152 55.621-22.07 65.43-26.816 108.02-18.43 180.06 10.148 52.219 45.938 57.582 75.656 57.199 1.0352-0.011719 2.0508-0.03125 3.043-0.054687 1.5547 0.17969 3.1211 0.29687 4.7188 0.29687v-0.007812h208.1c20.914 0 38.32-15.793 40.344-36.617 0.37891-3.9062 0.19922-7.7461-0.48828-11.426 12.438 43.488 45.59 48.168 73.422 47.812z"/>
  <path d="m461.74 240.8c-0.21094-0.85156-0.35156-1.4688-0.42969-1.8242-0.027344-0.14453-0.050782-0.23828-0.0625-0.30078l-0.007813-0.042969v0.003907c-2.7578-14.027-16.332-23.191-30.371-20.48-14.074 2.7109-23.281 16.312-20.562 30.387v-0.007813c0.45312 2.0195 7.457 38.406 33.867 78.797 5.7734 8.8008 12.566 17.777 20.383 26.578 2.293 2.5781 4.6758 5.1328 7.1562 7.6719 8.457 8.6445 17.965 17.008 28.805 24.676 24.836 17.613 56.348 31.441 94.656 36.984 1.2695 0.18359 2.5273 0.27344 3.7695 0.27344 12.672 0.003906 23.762-9.293 25.648-22.203 0.48828-3.3672 0.29297-6.6719-0.45703-9.7891-2.4062-10.016-10.668-18.055-21.48-19.633-30.34-4.457-53.551-14.867-72.164-28.004-25.781-18.195-42.754-42.254-53.438-63.105-0.85547-1.668-1.6797-3.3164-2.457-4.9375-5.2227-10.91-8.6523-20.578-10.711-27.328-1.0352-3.3633-1.7266-6.0078-2.1445-7.7148z"/>
  <path d="m81.066 247.98c2.1562 12.645 13.129 21.582 25.543 21.586 1.4531 0 2.9219-0.125 4.4023-0.37109l261.39-44.559 10.328-1.7617c14.121-2.4062 23.625-15.812 21.219-29.934-0.10938-0.64844-0.26953-1.2812-0.42578-1.9062-3.2383-13.059-16.035-21.605-29.512-19.309l-224.58 38.273-47.152 8.0391c-14.125 2.4062-23.625 15.809-21.219 29.941z"/>
  <path d="m348.27 114.62c0.78516 8.8789-3.3633 18.602-8.1133 24.523-2.8633 3.5547 1.4258 9.25 4.2734 5.7031 7.9609-9.9023 11.438-24.23 8.8125-38.285-2.6172-13.992-12.594-20.727-7.1992-36.684 2.0938-6.207 6.1719-12.035 10.312-16.016 3.1406-3.0078 0.12109-10.016-3.0508-6.9648-7.9141 7.6016-13.891 18.434-15.18 31.469-1.3984 14.047 8.9727 23.066 10.145 36.254z"/>
  <path d="m388.76 46.895c-7.9102 7.6016-13.891 18.434-15.184 31.469-1.3867 14.051 8.9805 23.07 10.152 36.258 0.78516 8.8789-3.3633 18.602-8.1133 24.523-2.8594 3.5547 1.4258 9.25 4.2734 5.7031 7.9609-9.9023 11.438-24.23 8.8125-38.285-2.6133-13.992-12.594-20.727-7.1992-36.684 2.0938-6.207 6.1719-12.035 10.312-16.016 3.1328-3.0078 0.12109-10.016-3.0547-6.9688z"/>
  <path d="m427.26 53.863c3.1406-3.0078 0.125-10.016-3.0508-6.9648-7.9141 7.6016-13.891 18.434-15.184 31.469-1.3906 14.051 8.9805 23.07 10.148 36.258 0.78906 8.8789-3.3633 18.602-8.1133 24.523-2.8594 3.5547 1.4297 9.25 4.2773 5.7031 7.957-9.9023 11.438-24.23 8.8125-38.285-2.6133-13.992-12.598-20.727-7.1992-36.684 2.0977-6.2148 6.1758-12.043 10.309-16.02z"/>
  <path d="m680.54 496.78h-661.08c-10.75 0-19.461 8.7148-19.461 19.461 0 10.746 8.7109 19.457 19.461 19.457h661.08c10.746 0 19.461-8.7148 19.461-19.457-0.003906-10.746-8.7188-19.461-19.465-19.461z"/>
  <use y="584.339844" xlink:href="#u"/>
  <use x="11.902344" y="584.339844" xlink:href="#e"/>
  <use x="19.898438" y="584.339844" xlink:href="#b"/>
  <use x="30.894531" y="584.339844" xlink:href="#d"/>
  <use x="41.839844" y="584.339844" xlink:href="#c"/>
  <use x="49.589844" y="584.339844" xlink:href="#b"/>
  <use x="60.589844" y="584.339844" xlink:href="#k"/>
  <use x="77.84375" y="584.339844" xlink:href="#j"/>
  <use x="89.449219" y="584.339844" xlink:href="#g"/>
  <use x="105.667969" y="584.339844" xlink:href="#i"/>
  <use x="118.976562" y="584.339844" xlink:href="#d"/>
  <use x="129.917969" y="584.339844" xlink:href="#f"/>
  <use x="147.109375" y="584.339844" xlink:href="#t"/>
  <use x="159.675781" y="584.339844" xlink:href="#h"/>
  <use x="171.21875" y="584.339844" xlink:href="#a"/>
  <use x="182.359375" y="584.339844" xlink:href="#a"/>
  <use x="193.5" y="584.339844" xlink:href="#f"/>
  <use x="210.691406" y="584.339844" xlink:href="#s"/>
  <use x="221.023438" y="584.339844" xlink:href="#d"/>
  <use x="231.96875" y="584.339844" xlink:href="#g"/>
  <use y="600.554688" xlink:href="#r"/>
  <use x="7.054687" y="600.554688" xlink:href="#e"/>
  <use x="15.050781" y="600.554688" xlink:href="#a"/>
  <use x="26.191406" y="600.554688" xlink:href="#q"/>
  <use x="48.734375" y="600.554688" xlink:href="#c"/>
  <use x="56.488281" y="600.554688" xlink:href="#h"/>
  <use x="68.03125" y="600.554688" xlink:href="#b"/>
  <use x="84.675781" y="600.554688" xlink:href="#p"/>
  <use x="98.246094" y="600.554688" xlink:href="#a"/>
  <use x="109.386719" y="600.554688" xlink:href="#o"/>
  <use x="120.933594" y="600.554688" xlink:href="#f"/>
  <use x="138.121094" y="600.554688" xlink:href="#n"/>
  <use x="150.007812" y="600.554688" xlink:href="#e"/>
  <use x="158.003906" y="600.554688" xlink:href="#a"/>
  <use x="169.144531" y="600.554688" xlink:href="#m"/>
  <use x="174.703125" y="600.554688" xlink:href="#b"/>
  <use x="185.703125" y="600.554688" xlink:href="#l"/>
  <use x="195.316406" y="600.554688" xlink:href="#c"/>
 </g>
</svg>
