<?xml version="1.0" encoding="UTF-8"?>
<svg width="700pt" height="700pt" version="1.1" viewBox="0 0 700 700" xmlns="http://www.w3.org/2000/svg" xmlns:xlink="http://www.w3.org/1999/xlink">
 <defs>
  <symbol id="u" overflow="visible">
   <path d="m7.9062-0.46875c-0.40625 0.21094-0.83594 0.36719-1.2812 0.46875-0.4375 0.11328-0.89844 0.17188-1.375 0.17188-1.4297 0-2.5625-0.39844-3.4062-1.2031-0.83594-0.80078-1.25-1.8906-1.25-3.2656s0.41406-2.4609 1.25-3.2656c0.84375-0.80078 1.9766-1.2031 3.4062-1.2031 0.47656 0 0.9375 0.058594 1.375 0.17188 0.44531 0.10547 0.875 0.26172 1.2812 0.46875v1.7812c-0.40625-0.28125-0.8125-0.48438-1.2188-0.60938-0.39844-0.13281-0.8125-0.20312-1.25-0.20312-0.79297 0-1.418 0.25781-1.875 0.76562-0.44922 0.5-0.67188 1.1992-0.67188 2.0938 0 0.88672 0.22266 1.5859 0.67188 2.0938 0.45703 0.51172 1.082 0.76562 1.875 0.76562 0.4375 0 0.85156-0.0625 1.25-0.1875 0.40625-0.13281 0.8125-0.34375 1.2188-0.625z"/>
  </symbol>
  <symbol id="e" overflow="visible">
   <path d="m5.7969-4.7031c-0.1875-0.082031-0.37109-0.14453-0.54688-0.1875-0.17969-0.039063-0.35547-0.0625-0.53125-0.0625-0.53125 0-0.94531 0.17188-1.2344 0.51562-0.28125 0.34375-0.42188 0.83594-0.42188 1.4688v2.9688h-2.0781v-6.4531h2.0781v1.0469c0.25781-0.41406 0.5625-0.71875 0.90625-0.90625 0.34375-0.19531 0.75391-0.29688 1.2344-0.29688 0.070313 0 0.14453 0.007813 0.21875 0.015625 0.082031 0 0.20312 0.011719 0.35938 0.03125z"/>
  </symbol>
  <symbol id="b" overflow="visible">
   <path d="m7.4375-3.25v0.59375h-4.8281c0.050781 0.48047 0.22656 0.84375 0.53125 1.0938 0.30078 0.24219 0.71875 0.35938 1.25 0.35938 0.4375 0 0.87891-0.0625 1.3281-0.1875 0.45703-0.13281 0.92969-0.33203 1.4219-0.59375v1.5938c-0.49219 0.1875-0.98047 0.32812-1.4688 0.42188-0.49219 0.09375-0.98047 0.14062-1.4688 0.14062-1.168 0-2.0781-0.29688-2.7344-0.89062-0.64844-0.59375-0.96875-1.4258-0.96875-2.5 0-1.0508 0.31641-1.8789 0.95312-2.4844 0.64453-0.60156 1.5234-0.90625 2.6406-0.90625 1.0078 0 1.8164 0.30859 2.4219 0.92188 0.61328 0.60547 0.92188 1.418 0.92188 2.4375zm-2.125-0.6875c0-0.38281-0.11719-0.69531-0.34375-0.9375-0.23047-0.25-0.52734-0.375-0.89062-0.375-0.39844 0-0.71875 0.11719-0.96875 0.34375-0.25 0.23047-0.40625 0.55469-0.46875 0.96875z"/>
  </symbol>
  <symbol id="d" overflow="visible">
   <path d="m3.8906-2.9062c-0.4375 0-0.76562 0.074219-0.98438 0.21875-0.21094 0.14844-0.3125 0.35938-0.3125 0.64062 0 0.26172 0.082031 0.46875 0.25 0.625 0.17578 0.14844 0.42188 0.21875 0.73438 0.21875 0.39453 0 0.72266-0.14062 0.98438-0.42188 0.25781-0.28125 0.39062-0.62891 0.39062-1.0469v-0.23438zm3.1562-0.78125v3.6875h-2.0938v-0.95312c-0.27344 0.38672-0.58594 0.67188-0.9375 0.85938-0.34375 0.17578-0.76172 0.26562-1.25 0.26562-0.66797 0-1.2148-0.19141-1.6406-0.57812-0.41797-0.39453-0.625-0.90625-0.625-1.5312 0-0.75781 0.25781-1.3164 0.78125-1.6719 0.53125-0.35156 1.3516-0.53125 2.4688-0.53125h1.2031v-0.15625c0-0.32031-0.13281-0.5625-0.39062-0.71875-0.25-0.15625-0.64844-0.23438-1.1875-0.23438-0.44922 0-0.86719 0.046875-1.25 0.14062-0.375 0.085937-0.72656 0.21484-1.0469 0.39062v-1.5625c0.4375-0.11328 0.87891-0.19531 1.3281-0.25 0.44531-0.050781 0.89453-0.078125 1.3438-0.078125 1.1562 0 1.9922 0.23047 2.5156 0.6875 0.51953 0.46094 0.78125 1.2031 0.78125 2.2344z"/>
  </symbol>
  <symbol id="c" overflow="visible">
   <path d="m3.25-8.2969v1.8438h2.125v1.4688h-2.125v2.7344c0 0.30469 0.054688 0.50781 0.17188 0.60938 0.125 0.10547 0.36328 0.15625 0.71875 0.15625h1.0625v1.4844h-1.7812c-0.8125 0-1.3906-0.16406-1.7344-0.5-0.33594-0.34375-0.5-0.92578-0.5-1.75v-2.7344h-1.0312v-1.4688h1.0312v-1.8438z"/>
  </symbol>
  <symbol id="k" overflow="visible">
   <path d="m5.3906-5.5156v-3.4531h2.0781v8.9688h-2.0781v-0.9375c-0.29297 0.38672-0.60938 0.66797-0.95312 0.84375-0.33594 0.17578-0.72656 0.26562-1.1719 0.26562-0.80469 0-1.4609-0.31641-1.9688-0.95312-0.51172-0.63281-0.76562-1.4453-0.76562-2.4375 0-1 0.25391-1.8125 0.76562-2.4375 0.50781-0.63281 1.1641-0.95312 1.9688-0.95312 0.4375 0 0.82812 0.089844 1.1719 0.26562 0.34375 0.17969 0.66016 0.45312 0.95312 0.82812zm-1.3594 4.1875c0.4375 0 0.76953-0.16016 1-0.48438 0.23828-0.32031 0.35938-0.78906 0.35938-1.4062 0-0.61328-0.12109-1.082-0.35938-1.4062-0.23047-0.32031-0.5625-0.48438-1-0.48438s-0.77734 0.16406-1.0156 0.48438c-0.23047 0.32422-0.34375 0.79297-0.34375 1.4062 0 0.61719 0.11328 1.0859 0.34375 1.4062 0.23828 0.32422 0.57812 0.48438 1.0156 0.48438z"/>
  </symbol>
  <symbol id="j" overflow="visible">
   <path d="m4.4375-1.3281c0.4375 0 0.76953-0.16016 1-0.48438 0.23828-0.32031 0.35938-0.78906 0.35938-1.4062 0-0.61328-0.12109-1.082-0.35938-1.4062-0.23047-0.32031-0.5625-0.48438-1-0.48438-0.44922 0-0.79297 0.16406-1.0312 0.48438-0.23047 0.32422-0.34375 0.79297-0.34375 1.4062 0 0.60547 0.11328 1.0742 0.34375 1.4062 0.23828 0.32422 0.58203 0.48438 1.0312 0.48438zm-1.375-4.1875c0.28125-0.375 0.59375-0.64844 0.9375-0.82812 0.34375-0.17578 0.74219-0.26562 1.2031-0.26562 0.78906 0 1.4414 0.32031 1.9531 0.95312 0.50781 0.625 0.76562 1.4375 0.76562 2.4375 0 0.99219-0.25781 1.8047-0.76562 2.4375-0.51172 0.63672-1.1641 0.95312-1.9531 0.95312-0.46094 0-0.85938-0.089844-1.2031-0.26562-0.34375-0.1875-0.65625-0.46875-0.9375-0.84375v0.9375h-2.0781v-8.9688h2.0781z"/>
  </symbol>
  <symbol id="g" overflow="visible">
   <path d="m0.14062-6.4531h2.0625l1.7344 4.375 1.4844-4.375h2.0625l-2.7188 7.0625c-0.27344 0.71875-0.58984 1.2188-0.95312 1.5-0.36719 0.28906-0.84375 0.4375-1.4375 0.4375h-1.1875v-1.3594h0.64062c0.35156 0 0.60938-0.058594 0.76562-0.17188 0.15625-0.10547 0.28125-0.30469 0.375-0.59375l0.046875-0.17188z"/>
  </symbol>
  <symbol id="i" overflow="visible">
   <path d="m8.8281-0.64062c-0.55469 0.27344-1.1328 0.47656-1.7344 0.60938-0.59375 0.13281-1.2109 0.20312-1.8438 0.20312-1.4297 0-2.5625-0.39844-3.4062-1.2031-0.83594-0.80078-1.25-1.8906-1.25-3.2656 0-1.3828 0.42578-2.4727 1.2812-3.2656 0.85156-0.80078 2.0195-1.2031 3.5-1.2031 0.57031 0 1.1172 0.058594 1.6406 0.17188 0.53125 0.10547 1.0234 0.26172 1.4844 0.46875v1.7812c-0.48047-0.26953-0.96094-0.47266-1.4375-0.60938-0.46875-0.13281-0.94531-0.20312-1.4219-0.20312-0.88672 0-1.5703 0.25-2.0469 0.75-0.46875 0.49219-0.70312 1.1953-0.70312 2.1094 0 0.90625 0.22656 1.6094 0.6875 2.1094 0.45703 0.5 1.1133 0.75 1.9688 0.75 0.22656 0 0.44141-0.015625 0.64062-0.046875 0.19531-0.03125 0.375-0.078125 0.53125-0.14062v-1.6719h-1.3594v-1.4844h3.4688z"/>
  </symbol>
  <symbol id="f" overflow="visible">
   <path d="m7.4844-3.9375v3.9375h-2.0781v-3.0156c0-0.55078-0.015625-0.92969-0.046875-1.1406-0.023437-0.21875-0.058594-0.375-0.10938-0.46875-0.085938-0.13281-0.19922-0.23828-0.34375-0.3125-0.13672-0.082031-0.29297-0.125-0.46875-0.125-0.42969 0-0.76562 0.16797-1.0156 0.5-0.24219 0.33594-0.35938 0.79688-0.35938 1.3906v3.1719h-2.0781v-6.4531h2.0781v0.9375c0.3125-0.375 0.64062-0.64844 0.98438-0.82812 0.35156-0.17578 0.73828-0.26562 1.1562-0.26562 0.75 0 1.3164 0.23047 1.7031 0.6875 0.38281 0.44922 0.57812 1.1094 0.57812 1.9844z"/>
  </symbol>
  <symbol id="t" overflow="visible">
   <path d="m1.0781-8.6094h2.2344v3.1406l3.1875-3.1406h2.5781l-4.1406 4.0781 4.5781 4.5312h-2.7812l-3.4219-3.3906v3.3906h-2.2344z"/>
  </symbol>
  <symbol id="h" overflow="visible">
   <path d="m7.4844-3.9375v3.9375h-2.0781v-3c0-0.5625-0.015625-0.94531-0.046875-1.1562-0.023437-0.21875-0.058594-0.375-0.10938-0.46875-0.085938-0.13281-0.19922-0.23828-0.34375-0.3125-0.13672-0.082031-0.29297-0.125-0.46875-0.125-0.42969 0-0.76562 0.16797-1.0156 0.5-0.24219 0.33594-0.35938 0.79688-0.35938 1.3906v3.1719h-2.0781v-8.9688h2.0781v3.4531c0.3125-0.375 0.64062-0.64844 0.98438-0.82812 0.35156-0.17578 0.73828-0.26562 1.1562-0.26562 0.75 0 1.3164 0.23047 1.7031 0.6875 0.38281 0.44922 0.57812 1.1094 0.57812 1.9844z"/>
  </symbol>
  <symbol id="a" overflow="visible">
   <path d="m4.0625-5.1406c-0.46094 0-0.80859 0.16797-1.0469 0.5-0.24219 0.32422-0.35938 0.79688-0.35938 1.4219 0 0.61719 0.11719 1.0898 0.35938 1.4219 0.23828 0.32422 0.58594 0.48438 1.0469 0.48438 0.44531 0 0.78906-0.16016 1.0312-0.48438 0.23828-0.33203 0.35938-0.80469 0.35938-1.4219 0-0.625-0.12109-1.0977-0.35938-1.4219-0.24219-0.33203-0.58594-0.5-1.0312-0.5zm0-1.4688c1.1133 0 1.9844 0.30469 2.6094 0.90625 0.625 0.59375 0.9375 1.4219 0.9375 2.4844s-0.3125 1.8984-0.9375 2.5c-0.625 0.59375-1.4961 0.89062-2.6094 0.89062-1.1172 0-1.9922-0.29688-2.625-0.89062-0.625-0.60156-0.9375-1.4375-0.9375-2.5s0.3125-1.8906 0.9375-2.4844c0.63281-0.60156 1.5078-0.90625 2.625-0.90625z"/>
  </symbol>
  <symbol id="s" overflow="visible">
   <path d="m1.0781-8.6094h2.2344v6.9375h3.8906v1.6719h-6.125z"/>
  </symbol>
  <symbol id="r" overflow="visible">
   <path d="m5.25-8.9688v1.3438h-1.1562c-0.29297 0-0.49609 0.058594-0.60938 0.17188-0.11719 0.10547-0.17188 0.28906-0.17188 0.54688v0.45312h1.7656v1.4688h-1.7656v4.9844h-2.0625v-4.9844h-1.0312v-1.4688h1.0312v-0.45312c0-0.70703 0.19141-1.2266 0.57812-1.5625 0.39453-0.33203 1.0039-0.5 1.8281-0.5z"/>
  </symbol>
  <symbol id="q" overflow="visible">
   <path d="m6.9844-5.3906c0.25781-0.39453 0.56641-0.69531 0.92188-0.90625 0.36328-0.20703 0.75781-0.3125 1.1875-0.3125 0.73828 0 1.3008 0.23047 1.6875 0.6875 0.39453 0.44922 0.59375 1.1094 0.59375 1.9844v3.9375h-2.0781v-3.375-0.14062c0.007813-0.0625 0.015625-0.14062 0.015625-0.23438 0-0.45703-0.070312-0.78906-0.20312-1-0.13672-0.20703-0.35547-0.3125-0.65625-0.3125-0.38672 0-0.6875 0.16406-0.90625 0.48438-0.21094 0.32422-0.32031 0.79297-0.32812 1.4062v3.1719h-2.0781v-3.375c0-0.70703-0.0625-1.1641-0.1875-1.375-0.125-0.20703-0.34375-0.3125-0.65625-0.3125-0.39844 0-0.70312 0.16797-0.92188 0.5-0.21094 0.32422-0.3125 0.78906-0.3125 1.3906v3.1719h-2.0781v-6.4531h2.0781v0.9375c0.25-0.36328 0.53516-0.63281 0.85938-0.8125 0.33203-0.1875 0.69531-0.28125 1.0938-0.28125 0.44531 0 0.84375 0.10938 1.1875 0.32812 0.34375 0.21094 0.60156 0.50781 0.78125 0.89062z"/>
  </symbol>
  <symbol id="p" overflow="visible">
   <path d="m1.0781-8.6094h2.4844l3.1406 5.9062v-5.9062h2.0938v8.6094h-2.4688l-3.1406-5.9062v5.9062h-2.1094z"/>
  </symbol>
  <symbol id="o" overflow="visible">
   <path d="m0.92188-2.5156v-3.9375h2.0781v0.64062c0 0.34375-0.007812 0.78125-0.015625 1.3125v1.0625c0 0.52344 0.007813 0.89844 0.03125 1.125 0.03125 0.23047 0.082031 0.39844 0.15625 0.5 0.082031 0.13672 0.19141 0.24219 0.32812 0.3125 0.13281 0.074219 0.28906 0.10938 0.46875 0.10938 0.42578 0 0.76562-0.16406 1.0156-0.5 0.25-0.33203 0.375-0.78906 0.375-1.375v-3.1875h2.0625v6.4531h-2.0625v-0.9375c-0.3125 0.375-0.64844 0.65625-1 0.84375-0.34375 0.17578-0.72656 0.26562-1.1406 0.26562-0.75 0-1.3242-0.22656-1.7188-0.6875-0.38672-0.45703-0.57812-1.125-0.57812-2z"/>
  </symbol>
  <symbol id="n" overflow="visible">
   <path d="m1.0781-8.6094h3.6875c1.0938 0 1.9297 0.24609 2.5156 0.73438 0.59375 0.48047 0.89062 1.1719 0.89062 2.0781 0 0.89844-0.29688 1.5898-0.89062 2.0781-0.58594 0.49219-1.4219 0.73438-2.5156 0.73438h-1.4531v2.9844h-2.2344zm2.2344 1.6094v2.4062h1.2188c0.42578 0 0.75781-0.10156 1-0.3125 0.23828-0.20703 0.35938-0.50391 0.35938-0.89062 0-0.38281-0.12109-0.67969-0.35938-0.89062-0.24219-0.20703-0.57422-0.3125-1-0.3125z"/>
  </symbol>
  <symbol id="m" overflow="visible">
   <path d="m0.98438-6.4531h2.0781v6.3438c0 0.86328-0.21094 1.5195-0.625 1.9688-0.41797 0.45703-1.0234 0.6875-1.8125 0.6875h-1.0156v-1.3594h0.35938c0.38281 0 0.64844-0.089844 0.79688-0.26562 0.14453-0.17969 0.21875-0.52344 0.21875-1.0312zm0-2.5156h2.0781v1.6719h-2.0781z"/>
  </symbol>
  <symbol id="l" overflow="visible">
   <path d="m6.2188-6.2656v1.6875c-0.28125-0.1875-0.57031-0.32812-0.85938-0.42188-0.28125-0.09375-0.57422-0.14062-0.875-0.14062-0.57422 0-1.0234 0.17188-1.3438 0.51562-0.32422 0.33594-0.48438 0.80469-0.48438 1.4062 0 0.60547 0.16016 1.0742 0.48438 1.4062 0.32031 0.33594 0.76953 0.5 1.3438 0.5 0.32031 0 0.62891-0.046875 0.92188-0.14062 0.28906-0.09375 0.5625-0.23438 0.8125-0.42188v1.6875c-0.32422 0.11719-0.65234 0.20312-0.98438 0.26562-0.33594 0.0625-0.66797 0.09375-1 0.09375-1.168 0-2.0859-0.29688-2.75-0.89062-0.65625-0.60156-0.98438-1.4375-0.98438-2.5 0-1.0703 0.32812-1.9062 0.98438-2.5 0.66406-0.59375 1.582-0.89062 2.75-0.89062 0.33203 0 0.66016 0.03125 0.98438 0.09375 0.33203 0.054687 0.66406 0.13672 1 0.25z"/>
  </symbol>
 </defs>
 <g>
  <path d="m403.16 53.168c0 29.363-23.801 53.164-53.164 53.164s-53.168-23.801-53.168-53.164 23.805-53.168 53.168-53.168 53.164 23.805 53.164 53.168"/>
  <path d="m515.1 222.07c-0.92969 0.30078-10.879 3.0312-21.566 2.9805-8.3359 0.042969-16.582-1.6602-22.035-5.2969-5.3633-3.7461-9.9609-8.6523-12.383-22.707-4.3828-29.012-17.684-48.684-30.242-60.148-12.559-11.562-23.898-15.41-25.676-16.008-1.6094-0.51562-3.2344-0.78516-4.8477-0.86328-0.88281-0.13281-1.7812-0.22266-2.6992-0.22266h-91.293c-0.92188 0-1.8164 0.089844-2.7031 0.22266-1.6133 0.082031-3.2344 0.34766-4.8477 0.86719h-0.003907c-1.7812 0.59375-13.117 4.4414-25.672 16.004-12.559 11.469-25.859 31.141-30.242 60.148-2.4219 14.051-7.0234 18.961-12.383 22.707-5.4648 3.6445-13.707 5.3477-22.035 5.3008-5.8789 0.007813-11.574-0.78125-15.621-1.5742-2.0234-0.39844-3.6445-0.78906-4.6875-1.0625-0.52344-0.13672-0.90625-0.24609-1.1172-0.30469-0.054688-0.019531-0.10156-0.03125-0.13672-0.042969v-0.003906c-9.9609-3.1328-20.574 2.4023-23.707 12.359-3.1328 9.957 2.3984 20.57 12.355 23.703 1.0898 0.29688 14.727 4.668 32.918 4.7266 12.695-0.042968 28.188-2.1328 42.613-11.395 14.527-9.1562 25.961-26.258 29.172-48.645 1.6406-10.312 4.5117-18.184 7.8477-24.305v102.73l-20.16 247.17c-1.3125 16.086 10.668 30.18 26.742 31.492 16.078 1.3086 30.184-10.656 31.492-26.742l17.555-215.23h16.547l17.555 215.23c1.3125 16.086 15.414 28.055 31.492 26.742s28.055-15.406 26.742-31.492l-20.152-247.12-0.003907-102.73c3.332 6.1133 6.2031 13.949 7.8359 24.258 3.207 22.383 14.645 39.488 29.168 48.648 14.422 9.2656 29.914 11.352 42.617 11.391 18.184-0.054688 31.82-4.4219 32.914-4.7227 9.957-3.1328 15.492-13.746 12.359-23.707-3.1367-9.957-13.75-15.496-23.711-12.359z"/>
  <path d="m158.38 201.86c-2.0859 2.5898 1.0391 6.7383 3.1133 4.1523 5.8008-7.2148 8.3359-17.652 6.4219-27.895-1.9062-10.195-9.1758-15.102-5.2461-26.727 1.5273-4.5234 4.4961-8.7695 7.5156-11.668 2.2891-2.1914 0.085938-7.2969-2.2227-5.0742-5.7656 5.5391-10.121 13.43-11.062 22.93-1.0156 10.238 6.543 16.809 7.3945 26.418 0.56641 6.4688-2.457 13.551-5.9141 17.863z"/>
  <path d="m184.21 201.86c-2.0859 2.5898 1.0391 6.7383 3.1133 4.1523 5.8008-7.2148 8.3359-17.652 6.4219-27.895-1.9062-10.195-9.1758-15.102-5.2461-26.727 1.5273-4.5234 4.4961-8.7695 7.5156-11.668 2.2852-2.1914 0.085938-7.2969-2.2227-5.0742-5.7617 5.5391-10.121 13.43-11.062 22.93-1.0117 10.238 6.5469 16.809 7.3945 26.418 0.56641 6.4688-2.4531 13.551-5.9141 17.863z"/>
  <path d="m210.04 201.86c-2.0859 2.5898 1.043 6.7383 3.1172 4.1523 5.7969-7.2148 8.332-17.652 6.4219-27.895-1.9062-10.195-9.1797-15.102-5.2461-26.727 1.5273-4.5234 4.4961-8.7695 7.5117-11.668 2.2891-2.1914 0.089844-7.2969-2.2227-5.0742-5.7695 5.5391-10.121 13.43-11.062 22.93-1.0156 10.238 6.543 16.809 7.3945 26.418 0.57422 6.4688-2.4492 13.551-5.9141 17.863z"/>
  <path d="m478.76 201.86c-2.0859 2.5898 1.0391 6.7383 3.1133 4.1523 5.8008-7.2148 8.3359-17.652 6.4219-27.895-1.9062-10.195-9.1758-15.102-5.2461-26.727 1.5273-4.5234 4.4961-8.7695 7.5156-11.668 2.2891-2.1914 0.085938-7.2969-2.2227-5.0742-5.7656 5.5391-10.121 13.43-11.062 22.93-1.0156 10.238 6.543 16.809 7.3945 26.418 0.57031 6.4688-2.4531 13.551-5.9141 17.863z"/>
  <path d="m504.59 201.86c-2.0859 2.5898 1.0391 6.7383 3.1133 4.1523 5.8008-7.2148 8.3359-17.652 6.4219-27.895-1.9062-10.195-9.1758-15.102-5.2461-26.727 1.5273-4.5234 4.4961-8.7695 7.5156-11.668 2.2852-2.1914 0.085937-7.2969-2.2227-5.0742-5.7617 5.5391-10.121 13.43-11.062 22.93-1.0117 10.238 6.543 16.809 7.3945 26.418 0.57031 6.4688-2.4531 13.551-5.9141 17.863z"/>
  <path d="m540.01 134.65c-5.7656 5.5391-10.121 13.43-11.062 22.93-1.0156 10.238 6.543 16.809 7.3945 26.418 0.57422 6.4688-2.4492 13.555-5.9141 17.867-2.0859 2.5898 1.043 6.7383 3.1172 4.1523 5.7969-7.2148 8.332-17.652 6.4219-27.895-1.9062-10.195-9.1797-15.102-5.2461-26.727 1.5273-4.5234 4.4961-8.7695 7.5117-11.668 2.2852-2.1953 0.089843-7.3008-2.2227-5.0781z"/>
  <use x="156.804687" y="595.445312" xlink:href="#u"/>
  <use x="165.476562" y="595.445312" xlink:href="#e"/>
  <use x="171.300781" y="595.445312" xlink:href="#b"/>
  <use x="179.316406" y="595.445312" xlink:href="#d"/>
  <use x="187.289062" y="595.445312" xlink:href="#c"/>
  <use x="192.9375" y="595.445312" xlink:href="#b"/>
  <use x="200.949219" y="595.445312" xlink:href="#k"/>
  <use x="213.519531" y="595.445312" xlink:href="#j"/>
  <use x="221.976562" y="595.445312" xlink:href="#g"/>
  <use x="233.792969" y="595.445312" xlink:href="#i"/>
  <use x="243.488281" y="595.445312" xlink:href="#d"/>
  <use x="251.460937" y="595.445312" xlink:href="#f"/>
  <use x="263.988281" y="595.445312" xlink:href="#t"/>
  <use x="273.140625" y="595.445312" xlink:href="#h"/>
  <use x="281.554688" y="595.445312" xlink:href="#a"/>
  <use x="289.671875" y="595.445312" xlink:href="#a"/>
  <use x="297.785156" y="595.445312" xlink:href="#f"/>
  <use x="310.3125" y="595.445312" xlink:href="#s"/>
  <use x="317.839844" y="595.445312" xlink:href="#d"/>
  <use x="325.8125" y="595.445312" xlink:href="#g"/>
  <use x="156.804687" y="607.257812" xlink:href="#r"/>
  <use x="161.945312" y="607.257812" xlink:href="#e"/>
  <use x="167.773438" y="607.257812" xlink:href="#a"/>
  <use x="175.886719" y="607.257812" xlink:href="#q"/>
  <use x="192.3125" y="607.257812" xlink:href="#c"/>
  <use x="197.960937" y="607.257812" xlink:href="#h"/>
  <use x="206.371094" y="607.257812" xlink:href="#b"/>
  <use x="218.5" y="607.257812" xlink:href="#p"/>
  <use x="228.386719" y="607.257812" xlink:href="#a"/>
  <use x="236.503906" y="607.257812" xlink:href="#o"/>
  <use x="244.914062" y="607.257812" xlink:href="#f"/>
  <use x="257.4375" y="607.257812" xlink:href="#n"/>
  <use x="266.097656" y="607.257812" xlink:href="#e"/>
  <use x="271.925781" y="607.257812" xlink:href="#a"/>
  <use x="280.042969" y="607.257812" xlink:href="#m"/>
  <use x="284.089844" y="607.257812" xlink:href="#b"/>
  <use x="292.105469" y="607.257812" xlink:href="#l"/>
  <use x="299.109375" y="607.257812" xlink:href="#c"/>
 </g>
</svg>
