<?xml version="1.0" encoding="UTF-8"?>
<svg width="700pt" height="700pt" version="1.1" viewBox="0 0 700 700" xmlns="http://www.w3.org/2000/svg" xmlns:xlink="http://www.w3.org/1999/xlink">
 <defs>
  <symbol id="v" overflow="visible">
   <path d="m21.688-1.2969c-1.1172 0.58594-2.2812 1.0234-3.5 1.3125-1.2109 0.28906-2.4688 0.4375-3.7812 0.4375-3.9375 0-7.0586-1.0977-9.3594-3.2969-2.293-2.1953-3.4375-5.1758-3.4375-8.9375 0-3.7695 1.1445-6.7539 3.4375-8.9531 2.3008-2.1953 5.4219-3.2969 9.3594-3.2969 1.3125 0 2.5703 0.15234 3.7812 0.45312 1.2188 0.29297 2.3828 0.72656 3.5 1.2969v4.8906c-1.125-0.76953-2.2422-1.332-3.3438-1.6875-1.0938-0.36328-2.2461-0.54688-3.4531-0.54688-2.168 0-3.875 0.69922-5.125 2.0938-1.2422 1.3984-1.8594 3.3125-1.8594 5.75s0.61719 4.3555 1.8594 5.75c1.25 1.3867 2.957 2.0781 5.125 2.0781 1.207 0 2.3594-0.17578 3.4531-0.53125 1.1016-0.36328 2.2188-0.92969 3.3438-1.7031z"/>
  </symbol>
  <symbol id="e" overflow="visible">
   <path d="m15.875-12.891c-0.5-0.22656-0.99609-0.39453-1.4844-0.5-0.49219-0.11328-0.98047-0.17188-1.4688-0.17188-1.4609 0-2.5859 0.46875-3.375 1.4062-0.78125 0.92969-1.1719 2.2617-1.1719 4v8.1562h-5.6562v-17.703h5.6562v2.9062c0.72656-1.1562 1.5625-2 2.5-2.5312 0.94531-0.53125 2.082-0.79688 3.4062-0.79688 0.1875 0 0.39062 0.011719 0.60938 0.03125 0.21875 0.011719 0.53906 0.042969 0.96875 0.09375z"/>
  </symbol>
  <symbol id="a" overflow="visible">
   <path d="m20.391-8.9062v1.625h-13.234c0.13281 1.3242 0.61328 2.3203 1.4375 2.9844 0.82031 0.66797 1.9727 1 3.4531 1 1.1875 0 2.4062-0.17578 3.6562-0.53125 1.25-0.35156 2.5312-0.89062 3.8438-1.6094v4.3594c-1.3359 0.51172-2.6719 0.89062-4.0156 1.1406-1.3359 0.25781-2.668 0.39062-4 0.39062-3.2109 0-5.7031-0.8125-7.4844-2.4375-1.7734-1.625-2.6562-3.9102-2.6562-6.8594 0-2.8828 0.86719-5.1484 2.6094-6.7969 1.75-1.6562 4.1484-2.4844 7.2031-2.4844 2.7812 0 5.0039 0.83984 6.6719 2.5156 1.6758 1.668 2.5156 3.9023 2.5156 6.7031zm-5.8125-1.875c0-1.0703-0.32031-1.9375-0.95312-2.5938-0.625-0.66406-1.4453-1-2.4531-1-1.0938 0-1.9844 0.3125-2.6719 0.9375-0.67969 0.61719-1.1055 1.5-1.2812 2.6562z"/>
  </symbol>
  <symbol id="d" overflow="visible">
   <path d="m10.656-7.9688c-1.1797 0-2.0703 0.20312-2.6719 0.60938-0.59375 0.39844-0.89062 0.98438-0.89062 1.7656 0 0.71875 0.23828 1.2812 0.71875 1.6875 0.47656 0.40625 1.1445 0.60938 2 0.60938 1.0625 0 1.957-0.37891 2.6875-1.1406 0.72656-0.76953 1.0938-1.7266 1.0938-2.875v-0.65625zm8.6406-2.125v10.094h-5.7031v-2.625c-0.76172 1.0742-1.6172 1.8555-2.5625 2.3438-0.94922 0.48828-2.1016 0.73438-3.4531 0.73438-1.8359 0-3.3242-0.53125-4.4688-1.5938-1.1484-1.0703-1.7188-2.4609-1.7188-4.1719 0-2.0703 0.71094-3.5938 2.1406-4.5625 1.4258-0.96875 3.6719-1.4531 6.7344-1.4531h3.3281v-0.45312c0-0.89453-0.35547-1.5508-1.0625-1.9688-0.69922-0.41406-1.7969-0.625-3.2969-0.625-1.2188 0-2.3516 0.125-3.3906 0.375-1.043 0.24219-2.0117 0.60156-2.9062 1.0781v-4.3125c1.2188-0.28906 2.4375-0.50781 3.6562-0.65625 1.2188-0.15625 2.4414-0.23438 3.6719-0.23438 3.1875 0 5.4883 0.63281 6.9062 1.8906 1.4141 1.25 2.125 3.2969 2.125 6.1406z"/>
  </symbol>
  <symbol id="c" overflow="visible">
   <path d="m8.9062-22.734v5.0312h5.8281v4.0469h-5.8281v7.5c0 0.82422 0.16016 1.3828 0.48438 1.6719 0.32031 0.29297 0.96875 0.4375 1.9375 0.4375h2.9219v4.0469h-4.8594c-2.2422 0-3.8281-0.46094-4.7656-1.3906-0.92969-0.9375-1.3906-2.5234-1.3906-4.7656v-7.5h-2.8125v-4.0469h2.8125v-5.0312z"/>
  </symbol>
  <symbol id="l" overflow="visible">
   <path d="m14.766-15.109v-9.4844h5.6875v24.594h-5.6875v-2.5625c-0.78125 1.043-1.6406 1.8086-2.5781 2.2969-0.9375 0.47656-2.0234 0.71875-3.25 0.71875-2.1875 0-3.9844-0.86328-5.3906-2.5938-1.3984-1.7383-2.0938-3.9727-2.0938-6.7031 0-2.7266 0.69531-4.957 2.0938-6.6875 1.4062-1.7266 3.2031-2.5938 5.3906-2.5938 1.2188 0 2.2969 0.24609 3.2344 0.73438 0.94531 0.49219 1.8125 1.25 2.5938 2.2812zm-3.7344 11.453c1.2188 0 2.1445-0.44141 2.7812-1.3281 0.63281-0.88281 0.95312-2.1719 0.95312-3.8594 0-1.6758-0.32031-2.957-0.95312-3.8438-0.63672-0.88281-1.5625-1.3281-2.7812-1.3281-1.1992 0-2.1211 0.44531-2.7656 1.3281-0.63672 0.88672-0.95312 2.168-0.95312 3.8438 0 1.6875 0.31641 2.9766 0.95312 3.8594 0.64453 0.88672 1.5664 1.3281 2.7656 1.3281z"/>
  </symbol>
  <symbol id="k" overflow="visible">
   <path d="m12.141-3.6562c1.207 0 2.1289-0.44141 2.7656-1.3281 0.64453-0.88281 0.96875-2.1719 0.96875-3.8594 0-1.6758-0.32422-2.957-0.96875-3.8438-0.63672-0.88281-1.5586-1.3281-2.7656-1.3281-1.2109 0-2.1406 0.44922-2.7969 1.3438-0.64844 0.88672-0.96875 2.1641-0.96875 3.8281 0 1.6797 0.32031 2.9648 0.96875 3.8594 0.65625 0.88672 1.5859 1.3281 2.7969 1.3281zm-3.7656-11.453c0.78125-1.0312 1.6445-1.7891 2.5938-2.2812 0.94531-0.48828 2.0391-0.73438 3.2812-0.73438 2.1758 0 3.9609 0.86719 5.3594 2.5938 1.4062 1.7305 2.1094 3.9609 2.1094 6.6875 0 2.7305-0.70312 4.9648-2.1094 6.7031-1.3984 1.7305-3.1836 2.5938-5.3594 2.5938-1.2422 0-2.3359-0.24609-3.2812-0.73438-0.94922-0.48828-1.8125-1.25-2.5938-2.2812v2.5625h-5.6562v-24.594h5.6562z"/>
  </symbol>
  <symbol id="j" overflow="visible">
   <path d="m0.39062-17.703h5.6562l4.7656 12.016 4.0469-12.016h5.6562l-7.4375 19.375c-0.75 1.9688-1.625 3.3438-2.625 4.125-0.99219 0.78906-2.3047 1.1875-3.9375 1.1875h-3.2812v-3.7188h1.7812c0.95703 0 1.6562-0.15234 2.0938-0.45312 0.4375-0.30469 0.77344-0.85156 1.0156-1.6406l0.15625-0.48438z"/>
  </symbol>
  <symbol id="i" overflow="visible">
   <path d="m19.391-22.859v5c-1.293-0.58203-2.5586-1.0195-3.7969-1.3125-1.2305-0.30078-2.3906-0.45312-3.4844-0.45312-1.4609 0-2.5391 0.20312-3.2344 0.60938-0.6875 0.39844-1.0312 1.0156-1.0312 1.8594 0 0.63672 0.23438 1.1328 0.70312 1.4844 0.46875 0.35547 1.3164 0.65625 2.5469 0.90625l2.5938 0.51562c2.625 0.53125 4.4883 1.3359 5.5938 2.4062 1.1133 1.0742 1.6719 2.6055 1.6719 4.5938 0 2.6055-0.77734 4.543-2.3281 5.8125-1.543 1.2617-3.8984 1.8906-7.0625 1.8906-1.5 0-3.0078-0.14062-4.5156-0.42188-1.5-0.28125-3.0078-0.70312-4.5156-1.2656v-5.1406c1.5078 0.80469 2.9688 1.4062 4.375 1.8125s2.7578 0.60938 4.0625 0.60938c1.332 0 2.3477-0.21875 3.0469-0.65625 0.70703-0.44531 1.0625-1.082 1.0625-1.9062 0-0.73828-0.24219-1.3047-0.71875-1.7031-0.48047-0.40625-1.4336-0.76562-2.8594-1.0781l-2.3594-0.51562c-2.3672-0.50781-4.0938-1.3164-5.1875-2.4219-1.0859-1.1016-1.625-2.5938-1.625-4.4688 0-2.3516 0.75391-4.1602 2.2656-5.4219 1.5195-1.2695 3.7031-1.9062 6.5469-1.9062 1.3008 0 2.6328 0.10156 4 0.29688 1.375 0.19922 2.7891 0.49219 4.25 0.875z"/>
  </symbol>
  <symbol id="u" overflow="visible">
   <path d="m2.7188-17.703h5.6562v17.703h-5.6562zm0-6.8906h5.6562v4.6094h-5.6562z"/>
  </symbol>
  <symbol id="g" overflow="visible">
   <path d="m19.125-14.766c0.71875-1.0938 1.5664-1.9258 2.5469-2.5 0.98828-0.57031 2.0703-0.85938 3.25-0.85938 2.0391 0 3.5938 0.625 4.6562 1.875s1.5938 3.0742 1.5938 5.4688v10.781h-5.6875v-9.2344c0.007813-0.13281 0.015625-0.27344 0.015625-0.42188 0.007812-0.14453 0.015625-0.35938 0.015625-0.64062 0-1.25-0.1875-2.1562-0.5625-2.7188-0.36719-0.5625-0.96094-0.84375-1.7812-0.84375-1.0742 0-1.9023 0.44531-2.4844 1.3281-0.58594 0.88672-0.88672 2.168-0.90625 3.8438v8.6875h-5.7031v-9.2344c0-1.957-0.16797-3.2188-0.5-3.7812-0.33594-0.5625-0.93359-0.84375-1.7969-0.84375-1.0859 0-1.9219 0.44922-2.5156 1.3438-0.59375 0.88672-0.89062 2.1562-0.89062 3.8125v8.7031h-5.6875v-17.703h5.6875v2.5938c0.69531-1 1.4922-1.75 2.3906-2.25 0.90625-0.50781 1.8984-0.76562 2.9844-0.76562 1.2266 0 2.3125 0.29688 3.25 0.89062 0.9375 0.58594 1.6445 1.4062 2.125 2.4688z"/>
  </symbol>
  <symbol id="f" overflow="visible">
   <path d="m17.031-17.156v4.625c-0.77344-0.53125-1.5469-0.92188-2.3281-1.1719-0.77344-0.25-1.5742-0.375-2.4062-0.375-1.5859 0-2.8203 0.46484-3.7031 1.3906-0.875 0.91797-1.3125 2.1992-1.3125 3.8438 0 1.6562 0.4375 2.9492 1.3125 3.875 0.88281 0.91797 2.1172 1.375 3.7031 1.375 0.88281 0 1.7227-0.12891 2.5156-0.39062 0.80078-0.25781 1.5391-0.64844 2.2188-1.1719v4.6406c-0.88672 0.32422-1.7891 0.5625-2.7031 0.71875-0.90625 0.16406-1.8203 0.25-2.7344 0.25-3.1992 0-5.6992-0.81641-7.5-2.4531-1.8047-1.6328-2.7031-3.9141-2.7031-6.8438 0-2.9141 0.89844-5.1914 2.7031-6.8281 1.8008-1.6328 4.3008-2.4531 7.5-2.4531 0.92578 0 1.8359 0.085938 2.7344 0.25 0.90625 0.15625 1.8047 0.39844 2.7031 0.71875z"/>
  </symbol>
  <symbol id="b" overflow="visible">
   <path d="m11.141-14.078c-1.25 0-2.2109 0.45312-2.875 1.3594-0.65625 0.89844-0.98438 2.1875-0.98438 3.875 0 1.6992 0.32812 3 0.98438 3.9062 0.66406 0.89844 1.625 1.3438 2.875 1.3438 1.2383 0 2.1797-0.44531 2.8281-1.3438 0.65625-0.90625 0.98438-2.207 0.98438-3.9062 0-1.6875-0.32812-2.9766-0.98438-3.875-0.64844-0.90625-1.5898-1.3594-2.8281-1.3594zm0-4.0469c3.0508 0 5.4297 0.82422 7.1406 2.4688 1.707 1.6367 2.5625 3.9062 2.5625 6.8125 0 2.918-0.85547 5.1992-2.5625 6.8438-1.7109 1.6367-4.0898 2.4531-7.1406 2.4531-3.0547 0-5.4453-0.81641-7.1719-2.4531-1.7188-1.6445-2.5781-3.9258-2.5781-6.8438 0-2.9062 0.85938-5.1758 2.5781-6.8125 1.7266-1.6445 4.1172-2.4688 7.1719-2.4688z"/>
  </symbol>
  <symbol id="h" overflow="visible">
   <path d="m20.516-10.781v10.781h-5.6875v-8.2188c0-1.5508-0.039063-2.6133-0.10938-3.1875-0.0625-0.58203-0.17969-1.0078-0.34375-1.2812-0.23047-0.375-0.53125-0.66016-0.90625-0.85938-0.375-0.20703-0.80859-0.3125-1.2969-0.3125-1.1797 0-2.1055 0.46094-2.7812 1.375-0.67969 0.90625-1.0156 2.168-1.0156 3.7812v8.7031h-5.6562v-24.594h5.6562v9.4844c0.85156-1.0312 1.7578-1.7891 2.7188-2.2812 0.95703-0.48828 2.0195-0.73438 3.1875-0.73438 2.0391 0 3.5859 0.625 4.6406 1.875 1.0625 1.25 1.5938 3.0742 1.5938 5.4688z"/>
  </symbol>
  <symbol id="t" overflow="visible">
   <path d="m24.188-1.75c-1.5234 0.74219-3.1016 1.293-4.7344 1.6562-1.625 0.36328-3.3086 0.54688-5.0469 0.54688-3.9375 0-7.0586-1.0977-9.3594-3.2969-2.293-2.1953-3.4375-5.1758-3.4375-8.9375 0-3.8008 1.1641-6.7891 3.5-8.9688 2.3438-2.1875 5.5508-3.2812 9.625-3.2812 1.5703 0 3.0781 0.15234 4.5156 0.45312 1.4375 0.29297 2.7891 0.72656 4.0625 1.2969v4.8906c-1.3125-0.75-2.6211-1.3047-3.9219-1.6719-1.3047-0.375-2.6094-0.5625-3.9219-0.5625-2.418 0-4.2812 0.67969-5.5938 2.0312-1.3125 1.3555-1.9688 3.293-1.9688 5.8125 0 2.5 0.62891 4.4336 1.8906 5.7969 1.2695 1.3555 3.0664 2.0312 5.3906 2.0312 0.63281 0 1.2227-0.035156 1.7656-0.10938 0.53906-0.082031 1.0312-0.20703 1.4688-0.375v-4.5938h-3.7188v-4.0781h9.4844z"/>
  </symbol>
  <symbol id="s" overflow="visible">
   <path d="m16.547-17.156v4.2969c-1.2109-0.5-2.3828-0.875-3.5156-1.125-1.125-0.25781-2.1875-0.39062-3.1875-0.39062-1.0742 0-1.8711 0.13672-2.3906 0.40625-0.52344 0.27344-0.78125 0.6875-0.78125 1.25 0 0.44922 0.19531 0.79688 0.59375 1.0469 0.39453 0.24219 1.1016 0.41797 2.125 0.53125l1 0.14062c2.8945 0.36719 4.8438 0.96875 5.8438 1.8125s1.5 2.168 1.5 3.9688c0 1.8867-0.69922 3.3047-2.0938 4.25-1.3867 0.94922-3.4609 1.4219-6.2188 1.4219-1.168 0-2.375-0.09375-3.625-0.28125-1.25-0.17578-2.5391-0.44531-3.8594-0.8125v-4.3125c1.1328 0.55469 2.2891 0.96875 3.4688 1.25 1.1875 0.27344 2.3945 0.40625 3.625 0.40625 1.1016 0 1.9297-0.14844 2.4844-0.45312 0.5625-0.3125 0.84375-0.76953 0.84375-1.375 0-0.5-0.19531-0.875-0.57812-1.125-0.38672-0.25-1.1523-0.44141-2.2969-0.57812l-1-0.125c-2.5234-0.32031-4.2891-0.90625-5.2969-1.75-1.0117-0.85156-1.5156-2.1484-1.5156-3.8906 0-1.875 0.64062-3.2656 1.9219-4.1719 1.2891-0.90625 3.2656-1.3594 5.9219-1.3594 1.0391 0 2.1328 0.078125 3.2812 0.23438 1.1562 0.15625 2.4062 0.40234 3.75 0.73438z"/>
  </symbol>
  <symbol id="r" overflow="visible">
   <path d="m14.375-24.594v3.7188h-3.1406c-0.80469 0-1.3594 0.14844-1.6719 0.4375-0.3125 0.28125-0.46875 0.78125-0.46875 1.5v1.2344h4.8281v4.0469h-4.8281v13.656h-5.6562v-13.656h-2.8281v-4.0469h2.8281v-1.2344c0-1.9258 0.53516-3.3477 1.6094-4.2656 1.0703-0.92578 2.7344-1.3906 4.9844-1.3906z"/>
  </symbol>
  <symbol id="q" overflow="visible">
   <path d="m2.9688-23.594h6.7969l8.5938 16.188v-16.188h5.7656v23.594h-6.7969l-8.5938-16.188v16.188h-5.7656z"/>
  </symbol>
  <symbol id="p" overflow="visible">
   <path d="m2.5312-6.8906v-10.812h5.6875v1.7656c0 0.96094-0.007812 2.1641-0.015625 3.6094-0.011719 1.4492-0.015625 2.418-0.015625 2.9062 0 1.4297 0.035156 2.4531 0.10938 3.0781 0.070313 0.625 0.19531 1.0781 0.375 1.3594 0.23828 0.375 0.54688 0.66406 0.92188 0.85938 0.375 0.19922 0.80078 0.29688 1.2812 0.29688 1.1758 0 2.1016-0.45312 2.7812-1.3594 0.67578-0.90625 1.0156-2.1641 1.0156-3.7812v-8.7344h5.6562v17.703h-5.6562v-2.5625c-0.85547 1.0312-1.7617 1.793-2.7188 2.2812-0.94922 0.48828-1.9961 0.73438-3.1406 0.73438-2.0547 0-3.6172-0.625-4.6875-1.875-1.0625-1.25-1.5938-3.0703-1.5938-5.4688z"/>
  </symbol>
  <symbol id="o" overflow="visible">
   <path d="m20.516-10.781v10.781h-5.6875v-8.25c0-1.5312-0.039063-2.582-0.10938-3.1562-0.0625-0.58203-0.17969-1.0078-0.34375-1.2812-0.23047-0.375-0.53125-0.66016-0.90625-0.85938-0.375-0.20703-0.80859-0.3125-1.2969-0.3125-1.1797 0-2.1055 0.46094-2.7812 1.375-0.67969 0.90625-1.0156 2.168-1.0156 3.7812v8.7031h-5.6562v-17.703h5.6562v2.5938c0.85156-1.0312 1.7578-1.7891 2.7188-2.2812 0.95703-0.48828 2.0195-0.73438 3.1875-0.73438 2.0391 0 3.5859 0.625 4.6406 1.875 1.0625 1.25 1.5938 3.0742 1.5938 5.4688z"/>
  </symbol>
  <symbol id="n" overflow="visible">
   <path d="m2.9688-23.594h10.109c3 0 5.3008 0.66797 6.9062 2 1.6133 1.3242 2.4219 3.2188 2.4219 5.6875 0 2.4805-0.80859 4.3867-2.4219 5.7188-1.6055 1.3359-3.9062 2-6.9062 2h-4.0156v8.1875h-6.0938zm6.0938 4.4062v6.5938h3.3594c1.1875 0 2.0977-0.28516 2.7344-0.85938 0.64453-0.58203 0.96875-1.3984 0.96875-2.4531 0-1.0508-0.32422-1.8594-0.96875-2.4219-0.63672-0.57031-1.5469-0.85938-2.7344-0.85938z"/>
  </symbol>
  <symbol id="m" overflow="visible">
   <path d="m2.7188-17.703h5.6562v17.391c0 2.3633-0.57031 4.1719-1.7031 5.4219-1.1367 1.25-2.7891 1.875-4.9531 1.875h-2.7969v-3.7188h0.98438c1.0703 0 1.8047-0.24609 2.2031-0.73438 0.40625-0.48047 0.60938-1.4297 0.60938-2.8438zm0-6.8906h5.6562v4.6094h-5.6562z"/>
  </symbol>
 </defs>
 <g>
  <path d="m593.9 470.58c-18.711-20.848-95.5-112.85-95.5-112.85l-49.273-91.941-26.742 76.012 22.598 53.609h58.273l61.379 71.223-28.812 16.512s37.23 33.473 49.789 41.828c12.562 8.3516-4.0781 41.762-20.785 33.41-16.703-8.3516-70.574-37.617-70.574-37.617l-149.63-33.543-142.05 33.539s-54.387 29.266-71.223 37.617c-16.832 8.3555-41.633-16.703-20.914-33.406s50.18-41.828 50.18-41.828l-29.266-16.703 67.016-75.238h45.969l29.652-54.711-25.445-70.703-50.176 91.941s-73.164 87.734-91.941 108.64c-18.777 20.914-56.461-12.562-45.969-25.059 10.484-12.496 83.586-112.79 83.586-112.79s73.098-154.68 91.941-163.03c7.0586-3.1094 16.445-7.4453 25.512-11.59 22.203 24.41 53.789 38.16 86.789 37.777 33-0.38281 64.258-14.863 85.891-39.785 11.008 4.7266 23.051 9.9727 31.207 13.598 18.711 8.3516 87.344 163.04 87.344 163.04 0-0.003906 76.469 104.43 86.828 117 10.359 12.559-27 45.969-45.648 25.055zm-247.14-319.33c-20.055 0-39.293-7.9688-53.473-22.148-14.184-14.184-22.152-33.418-22.152-53.477s7.9688-39.293 22.152-53.477c14.18-14.18 33.418-22.148 53.473-22.148 20.059 0 39.293 7.9688 53.477 22.148 14.184 14.184 22.148 33.418 22.148 53.477 0.019531 20.062-7.9453 39.309-22.129 53.492-14.188 14.188-33.434 22.148-53.496 22.133z" fill-rule="evenodd"/>
  <use x="58.636719" y="657.121094" xlink:href="#v"/>
  <use x="82.394531" y="657.121094" xlink:href="#e"/>
  <use x="98.359375" y="657.121094" xlink:href="#a"/>
  <use x="120.316406" y="657.121094" xlink:href="#d"/>
  <use x="142.164062" y="657.121094" xlink:href="#c"/>
  <use x="157.640625" y="657.121094" xlink:href="#a"/>
  <use x="179.59375" y="657.121094" xlink:href="#l"/>
  <use x="214.039062" y="657.121094" xlink:href="#k"/>
  <use x="237.214844" y="657.121094" xlink:href="#j"/>
  <use x="269.585938" y="657.121094" xlink:href="#i"/>
  <use x="292.902344" y="657.121094" xlink:href="#u"/>
  <use x="304" y="657.121094" xlink:href="#g"/>
  <use x="337.734375" y="657.121094" xlink:href="#f"/>
  <use x="356.921875" y="657.121094" xlink:href="#b"/>
  <use x="379.164062" y="657.121094" xlink:href="#d"/>
  <use x="401.011719" y="657.121094" xlink:href="#f"/>
  <use x="420.199219" y="657.121094" xlink:href="#h"/>
  <use x="454.519531" y="657.121094" xlink:href="#t"/>
  <use x="481.089844" y="657.121094" xlink:href="#d"/>
  <use x="502.9375" y="657.121094" xlink:href="#g"/>
  <use x="536.671875" y="657.121094" xlink:href="#a"/>
  <use x="558.625" y="657.121094" xlink:href="#s"/>
  <use x="58.636719" y="689.496094" xlink:href="#r"/>
  <use x="72.722656" y="689.496094" xlink:href="#e"/>
  <use x="88.6875" y="689.496094" xlink:href="#b"/>
  <use x="110.929688" y="689.496094" xlink:href="#g"/>
  <use x="155.933594" y="689.496094" xlink:href="#c"/>
  <use x="171.40625" y="689.496094" xlink:href="#h"/>
  <use x="194.453125" y="689.496094" xlink:href="#a"/>
  <use x="227.683594" y="689.496094" xlink:href="#q"/>
  <use x="254.777344" y="689.496094" xlink:href="#b"/>
  <use x="277.015625" y="689.496094" xlink:href="#p"/>
  <use x="300.0625" y="689.496094" xlink:href="#o"/>
  <use x="334.382812" y="689.496094" xlink:href="#n"/>
  <use x="358.109375" y="689.496094" xlink:href="#e"/>
  <use x="374.074219" y="689.496094" xlink:href="#b"/>
  <use x="396.316406" y="689.496094" xlink:href="#m"/>
  <use x="407.414062" y="689.496094" xlink:href="#a"/>
  <use x="429.371094" y="689.496094" xlink:href="#f"/>
  <use x="448.558594" y="689.496094" xlink:href="#c"/>
 </g>
</svg>
