<svg width="0" height="0" class="hidden">
  <symbol xmlns="http://www.w3.org/2000/svg" viewBox="0 0 805.16 286.61" id="SoulSphere - H- Transparent">
    <defs></defs>
    <title>SoulSphere - H- Transparent</title>
    <g id="Layer_2">
      <g id="Logo">
        <g id="SoulSphere_-_H">
          <g id="SoulSphere_-_Icon">
            <path d="M44.83,118.7c0-51.4,31.58-94.72,74.67-108a111.5,111.5,0,0,0,0,216C76.41,213.43,44.83,170.1,44.83,118.7Z"></path>
            <path d="M175,10.72c43.08,13.26,74.67,56.58,74.67,108s-31.59,94.73-74.67,108a111.5,111.5,0,0,0,0-216Z"></path>
            <path d="M67.27,118.7c0-40.14,24.67-74,58.31-84.32a87.07,87.07,0,0,0,0,168.64C91.94,192.67,67.27,158.84,67.27,118.7Z"></path>
            <path d="M169,34.38c33.64,10.35,58.31,44.18,58.31,84.32S202.6,192.67,169,203a87.07,87.07,0,0,0,0-168.64Z"></path>
            <path d="M139.92,253.52c8.59,10.37,25.75,2.84,35.88-.46-3.3-5.65-14.29-7-19-2.78-4.31,3.86-9.2,5.49-14.51,2.59-1.61-.49-7.38-3.24-3.91-1A19.7,19.7,0,0,1,139.92,253.52Z"></path>
            <path d="M233.69,158.64A227.59,227.59,0,0,0,227.58,136c-.24-.71-.49-1.41-.75-2.12l67.66-14.29-69.29,9.84c-.06-.17-.12-.35-.18-.51a2.18,2.18,0,0,1-.15-.66c-1.37-3.64-2.58-6.5-3.49-8.54a.84.84,0,0,1-.28-.36c-1.69-3.87-3.4-7.48-5.07-10.73l60.7-37.82-63,33.58c-3.32-6-6.29-10.12-8.23-11.28a24.1,24.1,0,0,0-3.9-1.87c-.46-.16-.87-.3-1.21-.44-.83-.28-1.67-.54-2.51-.76l-.68-.13L243.36,31,191.19,89.06c-2.54-.23-5-.37-6.82-.45-.86,0-1.69,0-2.48-.08a.24.24,0,0,1-.1,0A27.3,27.3,0,0,1,171.94,86L198.38,5l-31.3,77.75a17.42,17.42,0,0,1-5.48-13.08,16.07,16.07,0,0,1,.13-1.94c-4.27,3.35-10.47,3.76-10.47,3.76a25.5,25.5,0,0,0,10.58-6.15s7.2-7.53,8.27-27.09c0-.57.07-1.14.08-1.72v-.09c0-.58,0-1.16,0-1.74a51.17,51.17,0,0,0-.49-7.1C167.53,11.84,158.14,0,146.87,0S126.23,11.84,124,27.61a52.87,52.87,0,0,0-.48,7v.12c0,.31,0,.62,0,.92,0,.63,0,1.26.06,1.86,0,.37,0,.75.07,1.13,1.13,19.28,8.24,26.73,8.24,26.73a25.57,25.57,0,0,0,10.59,6.15s-6.2-.41-10.49-3.76c.39,6.05-1.12,11.15-4.71,14.8L96.11,5l26.4,80.9c-3.76,1.81-8.66,2.77-14.84,2.62l-.15,0h-.14a39.77,39.77,0,0,0-4.42.19L51.13,31l46,58.68c-1.72.4-2.94.77-3.39.91-6.52,2.21-9.94,6.3-13.66,13.4L17.76,70.76l60.16,37.48L76.2,111.9c-3,6.36-5.37,12.2-7.36,17.42L0,119.54l67.19,14.2a192.62,192.62,0,0,0-6.14,20q-.57,2.58-1,5.09L0,171.48l59.35-8.42c-.15,1.11-.28,2.21-.38,3.29-.81,13,2.58,18.55,3.12,19.33.37.52.66,1.17,1.21,1.45,12.08,6.38,29.24.06,37.64-3.82a126.56,126.56,0,0,1,15-11.18c4-2.91,8.81-1.17,13.17-.11l18.12,6.16c-8.68-2.37-16.93-5.07-25.9-6-4.09.29-7.64,3.83-11,5.95-1.41,1-2.84,2.05-4.26,3.07a157.94,157.94,0,0,1,2.48,19.54s1.19,18-10.29,21.54C89.13,225.07,24.13,209.86,23,240.1c-.7,18,27.11,28.19,59.26,33.76,7.88-8.46,16-13.05,26.85-12.89,9.85,1.35,14-2.28,20.87-8.82a6.34,6.34,0,0,1,5.44-2.21c-23.73-8.08-48.77-11.94-73.73-13.57,27.89.59,56.27,3.34,82.32,13.73,5.58,2.75,8.62,1.48,13.26-2.34,6.91-5.13,16-1.57,20.53,4.81C198.2,241.77,221,236.34,244,235.35c-17.37,1.28-34.55,6.89-50.75,13.29-6.9,2.43-13.22,6.58-20.1,9-10.36,3.4-27.25,8.25-34.83-3.58-7.07-6.56-11.34,8.68-23.27,9.59-6.79-.69-14.47-1-20.53,2.67-6.2,3.05-21.09,12.58-12.13,19.65a5.23,5.23,0,0,0,4.73-.09c7-3.66,15.78-4.64,60.1-6,44.31,1.34,53.05,2.32,60.09,6,5.13,2.66,11.65-2,5.88-10a222,222,0,0,1-22.35,1c27.46-2.72,82.9-13,80.62-36.78-1.16-30.24-69.08-14-77.68-18-9.94-4.68-8.33-24.28-8.33-24.28a153.38,153.38,0,0,1,2.35-17s19.2,10.84,42.66,6.36c.26,0,.39-.43.59-.65l.22-.26c.16-.2.3-.4.45-.6l.23-.36c.17-.25.33-.5.48-.76,0,0,0,0,0-.05.18-.33.35-.67.51-1a.18.18,0,0,0,.05-.07,21.06,21.06,0,0,0,1.66-5.48,2.58,2.58,0,0,1,0-.62A53.62,53.62,0,0,0,234.4,163l60.09,8.53ZM95.1,158.7c-6.9.7-14,.54-20.48,3.38a50.34,50.34,0,0,1,17-5.3c1.29-8.88,8.5-34.93,9.82-39.64-5.9,23.12-.9,38.71,1.89,38l24.91,3C110.86,161.11,106.68,157.17,95.1,158.7Zm56-13.6a26.67,26.67,0,1,1,22.61-30.2c.07.51.12,1,.17,1.51a23.74,23.74,0,1,0-21.29,28.43A15,15,0,0,1,151.12,145.1Zm7.5,15.14c-4-2.84-3.94-8-4.33-12.43V128.67c.55,9,.64,17.66,2.64,26.45,1.59,3.77,6.08,6,9.18,8.53,6.58,4.65,13,9.51,19.78,13.92C176.42,172.44,167,167.13,158.62,160.24Zm33.11-2.64c-11.28-2.45-11.07-1.73-19.45-10.17-4.75-4.53-4.54-10.61-5.06-16.64-1.23-10.39-1-17.37-5.38-26.84,4.14,8.88,5.62,13.51,7.26,22.73,1.46,6.59.06,14.24,5.51,19.28,8.24,8.12,4.95,6.48,15.93,9.14,2.6-1.3,6.56-13.69,1.57-38.67.25.91,8.53,30.28,9.94,39.91,5.69.65,11.93,3.06,17.11,5.74C210.48,158.36,200.78,159.71,191.73,157.6Z"></path>
            <path d="M103.59,69.7,88,41.37l-1.67,1L103,70Z"></path>
            <path d="M55.77,68l-1.23,1.48,24.7,19.9c.14-.17.3-.33.44-.49Z"></path>
            <path d="M34.61,104l-.66,1.8,29.2,10c.09-.22.17-.43.27-.64Z"></path>
            <path d="M27,145v1.91L57,146.32c0-.24,0-.49,0-.73Z"></path>
            <path d="M267.46,146.91V145l-29.94.59c0,.24,0,.49,0,.73Z"></path>
            <path d="M231.34,115.72l29.2-10-.66-1.8-28.81,11.13Z"></path>
            <path d="M215.25,89.33,240,69.43,238.71,68l-23.9,20.89Z"></path>
            <path d="M191.46,70l16.72-27.68-1.66-1L190.9,69.7C191.09,69.8,191.28,69.9,191.46,70Z"></path>
            <path d="M135.33,141.05a25.36,25.36,0,1,1,30.18-40,24.88,24.88,0,0,0-18.44-4.66,25.08,25.08,0,0,0-11.74,44.68Z"></path>
          </g>
          <g id="SoulSphere_-_Logoname">
            <path d="M354.09,110.15C352.25,103,349.22,96,339.05,96c-8.44,0-11.36,6.17-11.36,11.79,0,7.47,4.76,11.25,13.74,15.91,13,6.7,18.61,11.68,18.61,22,0,11.36-9.85,20-23.8,20a45.22,45.22,0,0,1-16.56-3.57,149.83,149.83,0,0,1-2.92-16.23l3.36-.87c2.16,7.25,6.92,16.66,18.17,16.66,7.79,0,12.55-5.41,12.55-12.44,0-8.33-4.43-11.68-13.95-16.88-11.36-6.17-17.75-11.36-17.75-21.42,0-9.63,8-18.72,22.29-18.72,6.06,0,12,1.62,14.28,2.06.44,3.89.87,8.22,1.73,15.25Z"></path>
            <path d="M394,115.24c13.53,0,23.59,10.28,23.59,24.23,0,17.53-13,25.86-23.59,25.86-14.93,0-24-12-24-24.13C370,123.57,383.73,115.24,394,115.24Zm-1.3,3.68c-6.6,0-12.55,6.38-12.55,18.93,0,13.74,6.06,23.7,14.93,23.7,6.71,0,12.34-4.87,12.34-19.7C407.43,129.19,402.23,118.92,392.71,118.92Z"></path>
            <path d="M477.65,161.55a123.86,123.86,0,0,0-16.56,3.78V157c-5.84,4.87-10.6,8.33-16.55,8.33-7.25,0-13.53-4.43-13.53-16.23v-21c0-5.84-.86-6.49-3.57-7l-3-.54v-2.81a147.59,147.59,0,0,0,15.48-2c-.33,3.46-.33,8.65-.33,15.79v14.72c0,9.52,5,12.23,9.85,12.23,4,0,8-1.74,11.68-5.2V128.11c0-5.84-1.3-6.6-5-7.14l-3.47-.43v-2.81a155.1,155.1,0,0,0,17-2V152c0,5.41.87,6.17,5,6.39l3,.11Z"></path>
            <path d="M481.43,164v-3c6.93-.64,7.79-1.19,7.79-8.33V100.85c0-6.6-.54-7.25-7.46-8.12V89.92a76.57,76.57,0,0,0,16-3.68v66.43c0,7.14.65,7.69,7.68,8.33v3Z"></path>
            <path d="M549.27,110.15C547.43,103,544.4,96,534.23,96c-8.44,0-11.36,6.17-11.36,11.79,0,7.47,4.76,11.25,13.74,15.91,13,6.7,18.61,11.68,18.61,22,0,11.36-9.84,20-23.8,20a45.12,45.12,0,0,1-16.55-3.57,147,147,0,0,1-2.93-16.23l3.36-.87c2.16,7.25,6.92,16.66,18.18,16.66,7.79,0,12.55-5.41,12.55-12.44,0-8.33-4.44-11.68-14-16.88-11.36-6.17-17.74-11.36-17.74-21.42,0-9.63,8-18.72,22.28-18.72,6.06,0,12,1.62,14.29,2.06.43,3.89.86,8.22,1.73,15.25Z"></path>
            <path d="M562,118.81a70.28,70.28,0,0,0,15.69-4.66v8.66c.32-.22,9-5.19,9.41-5.41a15.23,15.23,0,0,1,6.28-2.16c11.9,0,19.15,10,19.15,20.66,0,16.45-13,26.84-27.16,29.43a18,18,0,0,1-7.68-1.94V178c0,8,.86,8.66,9.19,9.41v3H561.28v-3c7-.75,7.9-1.29,7.9-8.54V129.63c0-6.49-.22-6.93-7.14-7.9Zm15.69,37A15.68,15.68,0,0,0,588,160c9.41,0,15.47-7.9,15.47-20,0-11.68-6.82-18.28-14.5-18.28-3.79,0-8.33,2.49-11.25,4.65Z"></path>
            <path d="M650.33,164v-3c6.27-.64,7.14-1.19,7.14-8.33V134.93c0-9-3.46-13.53-10.71-13.42a15.46,15.46,0,0,0-11.47,5.63v25.53c0,7,.86,7.69,7.36,8.33v3H619.06v-3c6.27-.54,7.68-1.08,7.68-8.33V100.52c0-5.73-.32-7.14-7.57-7.79V89.92a67.27,67.27,0,0,0,16.12-3.68v36.9c3.89-3.9,9.84-7.9,15.69-7.9,8.87,0,15,5.52,15,18.5v19c0,7.14.86,7.68,7.14,8.22v3Z"></path>
            <path d="M718.6,154.84c-6.92,8.65-14.5,10.49-18,10.49-13.2,0-21.21-10.82-21.21-23.26a27.79,27.79,0,0,1,7-18.93c4.55-5.09,10.5-7.9,16.13-7.9,9.41,0,16.55,8.11,16.55,16.77-.11,2.16-.43,3.14-2.16,3.57-2.17.43-16,1.4-28.89,1.84-.33,14.5,8.55,20.45,16.23,20.45,4.43,0,8.55-1.84,12.55-5.52ZM700,119.35c-5,0-9.85,4.65-11.36,13.42,6.06,0,12.12,0,18.5-.33,2,0,2.6-.54,2.6-2.16C709.84,124.54,706.05,119.35,700,119.35Z"></path>
            <path d="M750.52,164H725.63v-3c6.82-.64,7.47-1.19,7.47-8.22v-22.5c0-7.14-.44-7.47-6.71-8.23v-2.7a60.08,60.08,0,0,0,15.25-4.44v11.9c3.79-5.62,8.34-11.57,13.75-11.57,4,0,6.27,2.49,6.27,5.19a7.25,7.25,0,0,1-3.68,5.95,2.13,2.13,0,0,1-2.81-.22c-1.62-1.62-2.92-2.7-4.87-2.7-2.27,0-6.28,3.35-8.66,8.87v20.34c0,7.14.55,7.69,8.88,8.33Z"></path>
            <path d="M804.62,154.84c-6.93,8.65-14.5,10.49-18,10.49-13.21,0-21.21-10.82-21.21-23.26a27.79,27.79,0,0,1,7-18.93c4.55-5.09,10.5-7.9,16.12-7.9,9.42,0,16.56,8.11,16.56,16.77-.11,2.16-.44,3.14-2.17,3.57-2.16.43-16,1.4-28.89,1.84-.32,14.5,8.55,20.45,16.23,20.45,4.44,0,8.55-1.84,12.55-5.52ZM786,119.35c-5,0-9.85,4.65-11.36,13.42,6.05,0,12.11,0,18.5-.33,1.94,0,2.59-.54,2.59-2.16C795.85,124.54,792.06,119.35,786,119.35Z"></path>
            <path d="M316.76,197.47l1.55-3.48a13.38,13.38,0,0,0,8,2.66c3.76,0,5.34-1.35,5.34-3.14,0-5.2-14.33-1.79-14.33-10.75,0-3.89,3.1-7.2,9.72-7.2a15.3,15.3,0,0,1,8,2.13l-1.41,3.48a13.45,13.45,0,0,0-6.65-1.89c-3.72,0-5.24,1.45-5.24,3.27,0,5.14,14.3,1.79,14.3,10.65,0,3.86-3.13,7.17-9.75,7.17C322.52,200.37,318.76,199.2,316.76,197.47Z"></path>
            <path d="M351.91,179.69h-8V175.9h20.47v3.79h-8V200h-4.48Z"></path>
            <path d="M389.08,194.44H377L374.65,200H370l10.85-24.12h4.41L396.18,200H391.5Zm-1.48-3.51-4.55-10.55-4.51,10.55Z"></path>
            <path d="M410.62,179.66V187h11.64v3.79H410.62V200h-4.48V175.9h17.61v3.76Z"></path>
            <path d="M439.45,179.66V187H451.1v3.79H439.45V200H435V175.9h17.6v3.76Z"></path>
            <path d="M461.82,188c0-7.13,5.51-12.4,13-12.4s13,5.24,13,12.4-5.52,12.41-13,12.41S461.82,195.1,461.82,188Zm21.46,0a8.48,8.48,0,1,0-8.47,8.48A8.21,8.21,0,0,0,483.28,188Z"></path>
            <path d="M515.22,200,510.29,193c-.31,0-.62,0-.93,0h-5.44v7h-4.48V175.9h9.92c6.34,0,10.27,3.24,10.27,8.58a7.72,7.72,0,0,1-5.13,7.62l5.55,7.92Zm-6.06-20.33h-5.24v9.62h5.24c3.93,0,6-1.8,6-4.83S513.09,179.69,509.16,179.69Z"></path>
            <path d="M531.52,175.9h10.54c7.82,0,13.16,4.83,13.16,12.06S549.88,200,542.06,200H531.52Zm10.33,20.33c5.38,0,8.86-3.27,8.86-8.27s-3.48-8.27-8.86-8.27H536v16.54Z"></path>
          </g>
        </g>
      </g>
    </g>
  </symbol>
</svg>